<svg width="365" height="400" viewBox="0 0 365 400" fill="none" xmlns="http://www.w3.org/2000/svg">
<rect width="365" height="400" fill="#E5EAD4"/>
<path d="M139.781 182.162H114.466V206.323H139.781V182.162Z" fill="#45936C"/>
<path d="M250.534 182.162H225.219V206.323H250.534V182.162Z" fill="#45936C"/>
<path d="M213.617 182.162H188.302V206.323H213.617V182.162Z" fill="#45936C"/>
<path d="M139.781 219.911H114.466V244.071H139.781V219.911Z" fill="#45936C"/>
<path d="M213.617 219.911H188.302V244.071H213.617V219.911Z" fill="#45936C"/>
<path d="M176.699 219.911H151.385V244.071H176.699V219.911Z" fill="#45936C"/>
<path d="M250.534 257.659H225.219V281.819H250.534V257.659Z" fill="#45936C"/>
<path d="M213.617 257.659H188.302V281.819H213.617V257.659Z" fill="#45936C"/>
<path d="M176.699 257.659H151.385V281.819H176.699V257.659Z" fill="#45936C"/>
<path d="M273.686 102.603H253.1V121.439C253.1 128.467 247.033 134.183 239.576 134.183H212.697C205.24 134.183 199.173 128.467 199.173 121.439V102.603H165.791V121.262C165.791 128.388 159.657 134.183 152.117 134.183H125.537C117.997 134.183 111.863 128.388 111.863 121.262V102.603H91.2775C77.8909 102.603 67 112.903 67 125.562V296.609C67 309.268 77.8909 319.568 91.2775 319.568H273.686C287.093 319.568 298 309.268 298 296.609V125.562C298 112.903 287.093 102.603 273.686 102.603ZM280.596 296.163C280.596 300.228 277.735 302.957 273.476 302.957H91.5237C87.2649 302.957 84.4036 300.228 84.4036 296.163V161.025H280.596V296.163Z" fill="#45936C"/>
<path d="M125.545 125.138H152.109C154.359 125.138 156.189 123.404 156.189 121.271V86.1972C156.189 80.8319 151.577 76.467 145.907 76.467H131.748C126.078 76.467 121.465 80.8315 121.465 86.1972V121.271C121.465 123.404 123.295 125.138 125.545 125.138Z" fill="#45936C"/>
<path d="M212.697 125.138H239.576C241.739 125.138 243.498 123.47 243.498 121.422V86.0477C243.498 80.7655 238.957 76.467 233.373 76.467H218.899C213.316 76.467 208.775 80.7655 208.775 86.0477V121.422C208.775 123.47 210.534 125.138 212.697 125.138Z" fill="#45936C"/>
</svg>
